<svg width="20" height="20" viewBox="0 0 20 20" fill="none" xmlns="http://www.w3.org/2000/svg">
<path fill-rule="evenodd" clip-rule="evenodd" d="M10.0001 1.63995C7.78286 1.63995 5.65646 2.52073 4.08866 4.08853C2.52085 5.65634 1.64007 7.78274 1.64007 9.99995C1.64007 12.2172 2.52085 14.3436 4.08866 15.9114C5.65646 17.4792 7.78286 18.3599 10.0001 18.3599C12.2173 18.3599 14.3437 17.4792 15.9115 15.9114C17.4793 14.3436 18.3601 12.2172 18.3601 9.99995C18.3601 7.78274 17.4793 5.65634 15.9115 4.08853C14.3437 2.52073 12.2173 1.63995 10.0001 1.63995ZM0.320068 9.99995C0.320068 8.72875 0.570449 7.47 1.05691 6.29557C1.54338 5.12114 2.2564 4.05402 3.15528 3.15515C4.05415 2.25628 5.12126 1.54326 6.29569 1.05679C7.47013 0.570327 8.72887 0.319946 10.0001 0.319946C11.2713 0.319946 12.53 0.570327 13.7044 1.05679C14.8789 1.54326 15.946 2.25628 16.8449 3.15515C17.7437 4.05402 18.4568 5.12114 18.9432 6.29557C19.4297 7.47 19.6801 8.72875 19.6801 9.99995C19.6801 12.5672 18.6602 15.0294 16.8449 16.8447C15.0295 18.6601 12.5674 19.6799 10.0001 19.6799C7.43277 19.6799 4.97063 18.6601 3.15528 16.8447C1.33992 15.0294 0.320068 12.5672 0.320068 9.99995Z" fill="#D1BF9B"/>
<path fill-rule="evenodd" clip-rule="evenodd" d="M18.8 10.5867H1.19995V9.41333H18.8V10.5867Z" fill="#D1BF9B"/>
<path fill-rule="evenodd" clip-rule="evenodd" d="M9.41337 18.7999V1.19993H10.5867V18.7999H9.41337ZM14.2167 9.99993C14.2167 6.81286 13.0712 3.661 10.8243 1.57686L11.5224 0.822998C14.0187 3.14033 15.2434 6.587 15.2434 9.99993C15.2434 13.4129 14.0187 16.861 11.5224 19.1769L10.8243 18.423C13.0712 16.3403 14.2167 13.187 14.2167 9.99993ZM4.8667 9.99993C4.8667 6.5914 6.05177 3.1462 8.47177 0.828865L9.18163 1.571C7.0051 3.65366 5.89337 6.807 5.89337 9.99993C5.89337 13.1914 7.0051 16.3462 9.18163 18.4289L8.47177 19.171C6.05177 16.8537 4.8667 13.407 4.8667 9.99993Z" fill="#D1BF9B"/>
<path fill-rule="evenodd" clip-rule="evenodd" d="M10.0001 4.80505C13.1828 4.80505 16.4168 5.39319 18.6094 6.61785C18.6684 6.6506 18.7203 6.69463 18.7622 6.74743C18.8041 6.80024 18.8352 6.86078 18.8538 6.92561C18.8723 6.99044 18.8778 7.05828 18.8701 7.12526C18.8625 7.19224 18.8416 7.25705 18.8089 7.31599C18.7762 7.37492 18.7321 7.42684 18.6793 7.46876C18.6265 7.51068 18.566 7.54179 18.5011 7.56031C18.4363 7.57883 18.3685 7.5844 18.3015 7.57671C18.2345 7.56901 18.1697 7.5482 18.1108 7.51545C16.1308 6.40959 13.0918 5.83172 10.0001 5.83172C6.90836 5.83172 3.86943 6.40959 1.88943 7.51545C1.7704 7.58158 1.62998 7.59772 1.49905 7.56031C1.36813 7.5229 1.25742 7.43502 1.1913 7.31599C1.12517 7.19696 1.10903 7.05653 1.14644 6.92561C1.18385 6.79468 1.27173 6.68398 1.39076 6.61785C3.58343 5.39319 6.81743 4.80505 10.0001 4.80505ZM10.0001 14.9133C13.1828 14.9133 16.4168 14.3252 18.6094 13.1005C18.6684 13.0678 18.7203 13.0237 18.7622 12.9709C18.8041 12.9181 18.8352 12.8576 18.8538 12.7928C18.8723 12.7279 18.8778 12.6601 18.8701 12.5931C18.8625 12.5261 18.8416 12.4613 18.8089 12.4024C18.7762 12.3434 18.7321 12.2915 18.6793 12.2496C18.6265 12.2077 18.566 12.1766 18.5011 12.1581C18.4363 12.1395 18.3685 12.134 18.3015 12.1417C18.2345 12.1494 18.1697 12.1702 18.1108 12.2029C16.1308 13.3088 13.0918 13.8867 10.0001 13.8867C6.90836 13.8867 3.86943 13.3088 1.88943 12.2029C1.8304 12.1663 1.76457 12.1421 1.69591 12.1317C1.62725 12.1213 1.5572 12.125 1.48999 12.1424C1.42278 12.1599 1.35981 12.1908 1.30489 12.2333C1.24998 12.2758 1.20425 12.329 1.17049 12.3897C1.13672 12.4503 1.11562 12.5172 1.10845 12.5863C1.10129 12.6554 1.10821 12.7252 1.1288 12.7915C1.1494 12.8578 1.18323 12.9193 1.22826 12.9721C1.27328 13.025 1.32857 13.0682 1.39076 13.0991C3.58343 14.3252 6.81743 14.9133 10.0001 14.9133Z" fill="#D1BF9B"/>
</svg>
