<?xml version="1.0" encoding="utf-8"?>
<!-- Generator: Adobe Illustrator 27.7.0, SVG Export Plug-In . SVG Version: 6.00 Build 0)  -->
<svg version="1.1" id="Layer_1" xmlns="http://www.w3.org/2000/svg" xmlns:xlink="http://www.w3.org/1999/xlink" x="0px" y="0px"
	 viewBox="0 0 20 20" style="enable-background:new 0 0 20 20;" xml:space="preserve">
<style type="text/css">
	.st0{fill:#D1BF9B;}
</style>
<g>
	<path class="st0" d="M6.8,19.7c1.8,0,3.2-1.5,3.2-3.2v-3.2H6.8c-1.8,0-3.2,1.5-3.2,3.2S5,19.7,6.8,19.7z"/>
	<path class="st0" d="M3.5,10c0-1.8,1.5-3.2,3.2-3.2H10v6.5H6.8C5,13.2,3.5,11.8,3.5,10z"/>
	<path class="st0" d="M3.5,3.5c0-1.8,1.5-3.2,3.2-3.2H10v6.5H6.8C5,6.8,3.5,5.3,3.5,3.5z"/>
	<path class="st0" d="M10,0.3h3.2c1.8,0,3.2,1.5,3.2,3.2S15,6.8,13.2,6.8H10V0.3z"/>
	<path class="st0" d="M16.5,10c0,1.8-1.5,3.2-3.2,3.2S10,11.8,10,10s1.5-3.2,3.2-3.2S16.5,8.2,16.5,10z"/>
</g>
</svg>
