<?xml version="1.0" encoding="utf-8"?>
<!-- Generator: Adobe Illustrator 26.0.3, SVG Export Plug-In . SVG Version: 6.00 Build 0)  -->
<svg version="1.1" id="Layer_1" xmlns="http://www.w3.org/2000/svg" xmlns:xlink="http://www.w3.org/1999/xlink" x="0px" y="0px"
	 viewBox="0 0 100 66.6" style="enable-background:new 0 0 100 66.6;" xml:space="preserve">
<style type="text/css">
	.st0{display:none;fill:#F0F0F2;}
	.st1{fill:#222226;}
</style>
<rect x="-344.9" y="-357.7" class="st0" width="500" height="500"/>
<g>
	<g>
		<path class="st1" d="M99.5,19.1c-0.9,4.8-3.7,9-8.4,12.5l0,0c4,3.3,5.6,7.7,4.7,13.1c-1.2,6.4-5.1,11.7-11.5,15.8
			C78,64.5,68.6,66.6,56,66.6H30L42.8,0h28.8c10.1,0,17.6,1.6,22.5,4.7C98.9,7.8,100.8,12.6,99.5,19.1z M72.2,44.9
			c0.3-1.5-0.2-2.7-1.4-3.7c-1.2-0.9-2.7-1.4-4.5-1.4H51.9l-2.3,11.9h9.4c3.7,0,6.8-0.7,9.1-2C70.4,48.5,71.8,46.9,72.2,44.9z
			 M54.7,25h9.4c3.5,0,6.2-0.6,8.3-1.9c2.1-1.2,3.2-2.7,3.5-4.3c0.3-1.1-0.3-2.1-1.7-2.9c-1.4-0.8-3.2-1.2-5.4-1.2H56.7L54.7,25z"/>
	</g>
	<g>
		<path class="st1" d="M99.6,19.1c-0.9,4.8-3.7,9-8.4,12.5l0,0c4,3.3,5.6,7.7,4.7,13.1c-1.2,6.4-5.1,11.7-11.5,15.8
			c-6.3,4.1-15.8,6.1-28.3,6.1H34.7h-4.5L43.2,0h4.4h24.2c10.1,0,17.6,1.6,22.5,4.7C99.1,7.8,100.9,12.6,99.6,19.1z M72.3,44.9
			c0.3-1.5-0.2-2.7-1.4-3.7c-1.2-0.9-2.7-1.4-4.5-1.4H52l-2.3,11.9H59c3.7,0,6.8-0.7,9.1-2C70.5,48.5,71.9,46.9,72.3,44.9z M54.9,25
			h9.4c3.5,0,6.2-0.6,8.3-1.9c2.1-1.2,3.2-2.7,3.5-4.3c0.3-1.1-0.3-2.1-1.7-2.9c-1.4-0.8-3.2-1.2-5.4-1.2H56.9L54.9,25z"/>
	</g>
	<path class="st1" d="M16.6,28.1c-0.9,2.5-1.8,5.3-2.5,8.3c5.7,2.1,12.3,3.6,19.3,5.2c1-5.2,2.1-10.7,3.2-16.2
		C28.9,28.1,21.9,29.7,16.6,28.1z"/>
	<path class="st1" d="M17,27c7.6,2,13.8-0.7,19.8-3c1.6-8.2,3.2-16.1,4.4-22C38.4,2.7,24.9,7.1,17,27z"/>
	<path class="st1" d="M25.1,51.9c2.1,1.9,3.7,3.1,5.4,4.3c0.7-3.8,1.7-8.4,2.6-13.4c-7-1.5-13.9-3.2-19.3-5.2
		c-0.5,2.3-0.8,4.5-0.9,6.5C16.5,45.4,20.7,47.9,25.1,51.9z"/>
	<path class="st1" d="M16.4,26.7C21.6,13.4,31.2,3.6,41.3,1.4c0.1-0.5,0.2-0.9,0.3-1.3C29.3,0,19.7,3.2,13,8.4
		C7.7,17.9,8.5,24.1,16.4,26.7z"/>
	<path class="st1" d="M11.9,44.7c-3.3-1.1-6.4-1.3-9,0.3c3.1,7.1,8.7,13.4,14.9,17.3C13.6,57.7,11.7,51.8,11.9,44.7z"/>
	<path class="st1" d="M13,35.9c0.7-2.9,1.5-5.6,2.5-8.3c0,0-0.1,0-0.1-0.1c-7.8-3.3-9.1-9.4-3.5-18.7c-6.3,5-9.9,11.8-11.1,19.5
		C4,31.7,8.2,34,13,35.9z"/>
	<path class="st1" d="M12.9,45.1c-0.2,9.8,4,15.7,6.4,18.2c3,1.7,6.2,2.8,9.1,3.2c0,0,0.7-3.6,1.8-9.3
		C26.8,54.5,19.7,47.9,12.9,45.1z"/>
	<path class="st1" d="M11.9,43.8c0.1-2.1,0.4-4.3,0.9-6.6c-0.2-0.1-0.3-0.1-0.5-0.2c-5.8-2.3-10.1-5.4-11.7-7.3
		c-0.1,1.3-0.2,2.6-0.2,4c0,3.7,0.8,7.3,2.2,10.7C4.5,42.8,7.8,42.5,11.9,43.8z"/>
</g>
</svg>
