<?xml version="1.0" encoding="utf-8"?>
<!-- Generator: Adobe Illustrator 26.0.3, SVG Export Plug-In . SVG Version: 6.00 Build 0)  -->
<svg version="1.1" xmlns="http://www.w3.org/2000/svg" xmlns:xlink="http://www.w3.org/1999/xlink" x="0px" y="0px"
	 viewBox="0 0 1080 1080" style="enable-background:new 0 0 1080 1080;" xml:space="preserve">
<style type="text/css">
	.st0{fill:none;stroke:#222226;stroke-width:5;stroke-miterlimit:10;}
	.st1{fill:none;stroke:#222226;stroke-width:6;stroke-miterlimit:10;}
	.st2{fill:none;stroke:#222226;stroke-width:7;stroke-miterlimit:10;}
	.st3{display:none;fill:#FFFFFF;}
	.st4{opacity:0.98;}
	.st5{fill:#222226;}
	.st6{opacity:0.95;fill:#222226;}
	.st7{font-family:'Metafora-BlackUltraExpObliq';}
	.st8{font-size:183.1968px;}
</style>
<g id="Layer_1">
	<g>
		<rect x="253.9" y="6.3" class="st0" width="572.3" height="1067.4"/>
		<line class="st0" x1="248" y1="539.8" x2="832" y2="539.8"/>
		<path class="st0" d="M609,536.2v7.2c0,36.1-29.3,65.4-65.4,65.4h-7.2c-36.1,0-65.4-29.3-65.4-65.4v-7.2
			c0-36.1,29.3-65.4,65.4-65.4h7.2C579.8,470.8,609,500,609,536.2z"/>
		<path class="st0" d="M540.9,304.7"/>
		<path class="st1" d="M608.1,226.6c0,0.6,0,1.1,0,1.7c0,37.6-30.5,68.1-68.1,68.1s-68.1-30.5-68.1-68.1c0-0.4,0-0.9,0-1.3
			C551.4,226.9,569.6,226.6,608.1,226.6z"/>
		<line class="st1" x1="654.8" y1="6.6" x2="608.1" y2="226.8"/>
		<line class="st1" x1="471.9" y1="227.4" x2="425.9" y2="6"/>
		<line class="st1" x1="504.2" y1="52" x2="575.1" y2="52"/>
		<line class="st2" x1="540" y1="63.2" x2="540" y2="52"/>
		<circle class="st2" cx="540" cy="72.9" r="9.3"/>
		<line class="st2" x1="446.4" y1="121.7" x2="443.3" y2="106.8"/>
		<line class="st2" x1="633.9" y1="121.4" x2="637.1" y2="106.5"/>
		<line class="st2" x1="640.8" y1="72.2" x2="646.4" y2="73.5"/>
		<line class="st2" x1="623.7" y1="154.5" x2="629.3" y2="155.7"/>
		<line class="st2" x1="616.1" y1="190" x2="621.7" y2="191.2"/>
		<line class="st2" x1="456.2" y1="154.2" x2="450.8" y2="155.9"/>
		<line class="st2" x1="463.7" y1="189.6" x2="458.2" y2="191.4"/>
		<line class="st2" x1="439.4" y1="72.1" x2="434" y2="73.8"/>
		<path class="st0" d="M540.3,775.3"/>
		<path class="st0" d="M779.5,1072.5v-55.4C777.4,859.5,660.8,775.7,536,775.7s-220.4,96.4-233.6,241.3"/>
		<path class="st1" d="M473.2,853.4c0-0.6,0-1.1,0-1.7c0-37.6,30.5-68.1,68.1-68.1s68.1,30.5,68.1,68.1c0,0.4,0,0.9,0,1.3
			C529.9,853.1,511.6,853.4,473.2,853.4z"/>
		<line class="st1" x1="426.5" y1="1073.4" x2="473.1" y2="853.2"/>
		<line class="st1" x1="609.4" y1="852.6" x2="655.4" y2="1074"/>
		<line class="st1" x1="577" y1="1028" x2="506.1" y2="1028"/>
		<line class="st2" x1="541.3" y1="1016.8" x2="541.3" y2="1028"/>
		<circle class="st2" cx="541.3" cy="1007.1" r="9.3"/>
		<line class="st2" x1="634.9" y1="958.3" x2="638" y2="973.2"/>
		<line class="st2" x1="447.3" y1="958.6" x2="444.2" y2="973.5"/>
		<line class="st2" x1="440.5" y1="1007.8" x2="434.9" y2="1006.5"/>
		<line class="st2" x1="457.6" y1="925.5" x2="452" y2="924.3"/>
		<line class="st2" x1="465.2" y1="890" x2="459.6" y2="888.8"/>
		<line class="st2" x1="625" y1="925.8" x2="630.5" y2="924.1"/>
		<line class="st2" x1="617.6" y1="890.4" x2="623" y2="888.6"/>
		<line class="st2" x1="641.8" y1="1007.9" x2="647.3" y2="1006.2"/>
		<line class="st0" x1="302.4" y1="1072.8" x2="302.4" y2="1016.7"/>
		<path class="st0" d="M301.8,6.8v56.1c2.1,157.5,118.7,241.3,243.4,241.3s220.4-96.4,233.6-241.3V6.8"/>
	</g>
</g>
<g id="Layer_2">
	<rect x="-149.2" y="288.6" class="st3" width="1300.1" height="503.8"/>
	<g class="st4">
		<g>
			<path class="st5" d="M535.3,448.3c-4.8,28.2-19.7,52.5-44.6,72.9c0,0,0,0,0,0c21.6,19.3,29.9,44.9,25.1,76.8
				c-6.7,37.5-27.2,68.3-61.4,92.4c-33.9,23.7-84.3,35.6-151.2,35.6H163.8l68.3-389h154.2c54.3,0,94.4,9.2,120.2,27.5
				C532.4,382.9,542,410.8,535.3,448.3z M389.1,599.7c1.5-8.9-1-16-7.5-21.4c-6.5-5.4-14.6-8.1-24.3-8.1h-77L268,639.7h50.2
				c20.1,0,36.4-3.9,48.8-11.7C379.5,620.3,386.8,610.8,389.1,599.7z M295.9,483.4h50.2c18.6,0,33.4-3.6,44.4-10.9
				c11-7.2,17.2-15.7,18.7-25.3c1.5-6.7-1.6-12.3-9.2-17c-7.6-4.6-17.2-7-28.7-7h-64.7L295.9,483.4z"/>
		</g>
		<g>
			<path class="st5" d="M535.9,448.3c-4.8,28.2-19.7,52.5-44.6,72.9c0,0,0,0,0,0c21.6,19.3,29.9,44.9,25.1,76.8
				c-6.7,37.5-27.2,68.3-61.4,92.4c-33.9,23.7-84.3,35.6-151.2,35.6H188.9h-24.4l69.4-389h23.5H387c54.3,0,94.4,9.2,120.2,27.5
				C533,382.9,542.6,410.8,535.9,448.3z M389.7,599.7c1.5-8.9-1-16-7.5-21.4c-6.5-5.4-14.6-8.1-24.3-8.1h-77l-12.3,69.6h50.2
				c20.1,0,36.4-3.9,48.8-11.7C380.2,620.3,387.5,610.8,389.7,599.7z M296.6,483.4h50.2c18.6,0,33.4-3.6,44.4-10.9
				c11-7.2,17.2-15.7,18.7-25.3c1.5-6.7-1.6-12.3-9.2-17c-7.6-4.6-17.2-7-28.7-7h-64.7L296.6,483.4z"/>
		</g>
		<path class="st5" d="M91.8,500.9c-5.1,14.7-9.6,30.8-13.6,48.4c30.6,12.4,65.7,21.2,103.1,30.4c5.4-30.3,11.2-62.6,17-94.4
			C157.7,501.2,120.2,510.6,91.8,500.9z"/>
		<path class="st5" d="M93.9,494.8c40.7,11.3,73.5-4.1,105.8-17.4c8.7-47.9,17-94,23.5-128.8C208.5,352.7,136.1,378.5,93.9,494.8z"
			/>
		<path class="st5" d="M137.2,640.1c11.2,11,19.7,17.9,28.8,25c4-22.2,8.7-49,13.9-78c-37.3-9.1-74.4-18.6-103.3-30.4
			c-2.7,13.6-4.2,26.3-4.7,38.1C91.4,602.3,113.8,617,137.2,640.1z"/>
		<path class="st5" d="M90.4,493c28.2-77.8,79.4-134.9,133.5-148.2c0.5-2.7,1-5.3,1.4-7.8c-65.9,0-116.9,18.5-152.8,49.1
			C44,441.3,48.1,478,90.4,493z"/>
		<path class="st5" d="M66.5,598.3c-17.4-6.6-34.3-7.6-48.5,2c16.5,41.7,46.5,78.1,79.5,101C75.8,674.3,65.4,639.9,66.5,598.3z"/>
		<path class="st5" d="M72.7,547c3.4-16.8,7.9-33,13.3-48.4c-0.2-0.1-0.5-0.2-0.7-0.3C43.5,479.2,36.4,443.1,66.4,389
			C33,418.3,13.1,458.1,6.9,502.8C24.5,522.1,46.9,536,72.7,547z"/>
		<path class="st5" d="M71.8,600.5c-0.9,57.3,21.6,91.6,34.5,106.6c16.2,9.9,32.9,16.6,48.9,18.9c0,0,3.7-21.1,9.6-54.1
			C146.3,655.2,108.4,616.6,71.8,600.5z"/>
		<path class="st5" d="M66.7,592.8c0.6-12.2,2.1-25,4.6-38.4c-0.9-0.4-1.8-0.8-2.7-1.2c-31.4-13.5-54-31.7-62.6-42.6
			c-0.8,7.7-1.2,15.5-1.2,23.4c0,21.4,4.3,42.4,11.7,62.4C26.8,587.4,44.6,585.3,66.7,592.8z"/>
	</g>
	<text transform="matrix(1 0 0 1 476.0664 712.7158)" class="st6 st7 st8">aLLIN</text>
</g>
</svg>
